DEFENDOR 2009 DVDRip H264 PsP 

Format                           : MPEG-4
Format profile                   : Base Media / Version 2
Codec ID                         : mp42
File size                        : 326 MiB
Duration                         : 1h 41mn
Overall bit rate                 : 449 Kbps
Encoded date                     : UTC 2010-03-20 16:48:22
Tagged date                      : UTC 2010-03-20 16:48:55
Writing application              : mp4creator 1.6.1d

Video
ID                               : 1
Format                           : AVC
Format/Info                      : Advanced Video Codec
Format profile                   : Baseline@L1.3
Format settings, CABAC           : No
Format settings, ReFrames        : 1 frame
Codec ID                         : avc1
Codec ID/Info                    : Advanced Video Coding
Duration                         : 1h 41mn
Bit rate mode                    : Variable
Bit rate                         : 385 Kbps
Width                            : 480 pixels
Height                           : 272 pixels
Display aspect ratio             : 16:9
Frame rate mode                  : Constant
Frame rate                       : 24.000 fps
Resolution                       : 24 bits
Colorimetry                      : 4:2:0
Scan type                        : Progressive
Bits/(Pixel*Frame)               : 0.123
Stream size                      : 279 MiB (86%)
Encoded date                     : UTC 2010-03-20 16:48:22
Tagged date                      : UTC 2010-03-20 16:48:52

Audio
ID                               : 2
Format                           : AAC
Format/Info                      : Advanced Audio Codec
Format version                   : Version 4
Format profile                   : LC
Format settings, SBR             : Yes
Format settings, PS              : No
Codec ID                         : 40
Duration                         : 1h 41mn
Bit rate mode                    : Variable
Bit rate                         : 63.1 Kbps
Maximum bit rate                 : 183 Kbps
Channel(s)                       : 2 channels
Channel positions                : L R
Sampling rate                    : 48.0 KHz
Resolution                       : 16 bits
Stream size                      : 45.8 MiB (14%)
Encoded date                     : UTC 2010-03-20 16:48:53
Tagged date                      : UTC 2010-03-20 16:48:55

Defendor is a Canadian comedy-drama film written and directed by Peter Stebbings, and starring Woody Harrelson, Kat Dennings and Sandra Oh. The story tells of a regular man who adopts the persona of a superhero named Defendor on a quest to find his arch enemy. Defendor, Stebbings' feature film debut, was written in 2005 and filmed in January 2009 in Toronto and Hamilton, Ontario, and is slated for North American theatrical release in February 2010. 
http://www.imdb.com/title/tt1303828/

PLEASE SEED AND ENJOY THANKS 
http://img153.imageshack.us/img153/206/defenh264vicemp4thumbs2.jpg

To view on PC then i recomend VLC media player or MPC media player

To burn to disc then i recomend convert x to dvd click on link below dl and install 
http://thepiratebay.org/torrent/5018839/VSO.Convert-X.to.DVD.3.5.3%28vice%29